# xmcd
#
# Track frame offsets: 
#        150
#        13897
#        25432
#        40287
#        50092
#        66545
#        79687
#        93342
#        104340
#        122092
#        140647
#        165867
#        186425
#        213142
#        224280
#        236900
#        265335
#        279612
#        296730
#
# Disc length: 4220 seconds
#
# Revision: 3
# Processed by: cddbd v1.5.2PL0 Copyright (c) Steve Scherf et al.
# Submitted via: ExactAudioCopy v1.0b1
#
DISCID=2a107a13
DTITLE=Muddy Waters - One More Mile - Disc 2
DYEAR=1994
DGENRE=Blues
TTITLE0=Thirteen Highway (mono)
TTITLE1=Early In The Morning Blues (mono)
TTITLE2=One More Mile (mono)
TTITLE3=Come Back Baby (Let's Talk it Over) (stereo)
TTITLE4=My Dog Can't Bark (stereo)
TTITLE5=Roll Me Over Baby (stereo)
TTITLE6=Trouble In Mind (alt - hornless remix) (stereo)
TTITLE7=Trouble (alt - hornless remix) (stereo)
TTITLE8=My Pencil Won't Write No More
TTITLE9=Cold Up North
TTITLE10=Streamline Woman (1972)
TTITLE11=Rock Me (1972)
TTITLE12=Standin' Around Cryin' (1972)
TTITLE13=(I'm Your) Hoochie Coochie Man (1972)
TTITLE14=Baby Please Don't Go (1972)
TTITLE15=You Can't Lose What You Ain't Never Had (1972)
TTITLE16=Feel Like Goin' Home (1972)
TTITLE17=Where's My Woman Been (1972)
TTITLE18=Rollin' and Tumblin' (1972)
EXTD=
EXTT0=
EXTT1=
EXTT2=
EXTT3=
EXTT4=
EXTT5=
EXTT6=
EXTT7=
EXTT8=
EXTT9=
EXTT10=
EXTT11=
EXTT12=
EXTT13=
EXTT14=
EXTT15=
EXTT16=
EXTT17=
EXTT18=
PLAYORDER=
